<?xml version="1.0" encoding="utf-8"?>
<!-- Generator: Adobe Illustrator 16.0.0, SVG Export Plug-In . SVG Version: 6.00 Build 0)  -->
<!DOCTYPE svg PUBLIC "-//W3C//DTD SVG 1.1//EN" "http://www.w3.org/Graphics/SVG/1.1/DTD/svg11.dtd">
<svg version="1.1"
	 id="svg2" xmlns:inkscape="http://www.inkscape.org/namespaces/inkscape" sodipodi:docname="preservephiladelphia_e.svg" inkscape:version="0.47 r22583" xmlns:svg="http://www.w3.org/2000/svg" xmlns:dc="http://purl.org/dc/elements/1.1/" xmlns:rdf="http://www.w3.org/1999/02/22-rdf-syntax-ns#" xmlns:cc="http://creativecommons.org/ns#" xmlns:sodipodi="http://sodipodi.sourceforge.net/DTD/sodipodi-0.dtd"
	 xmlns="http://www.w3.org/2000/svg" xmlns:xlink="http://www.w3.org/1999/xlink" x="0px" y="0px" width="263.343px"
	 height="208.96px" viewBox="0 37.96 263.343 208.96" enable-background="new 0 37.96 263.343 208.96" xml:space="preserve">
<sodipodi:namedview  inkscape:pageopacity="0" inkscape:pageshadow="2" inkscape:window-width="1280" guidetolerance="10" inkscape:zoom="1.0098469" borderopacity="1" inkscape:cx="352.88621" bordercolor="#666666" inkscape:cy="316.47147" showgrid="false" gridtolerance="10" pagecolor="#ffffff" objecttolerance="10" id="namedview8" inkscape:current-layer="svg2" inkscape:window-maximized="1" inkscape:window-y="24" inkscape:window-x="0" inkscape:window-height="946">
	</sodipodi:namedview>
<defs>
	
	
		<inkscape:perspective  inkscape:vp_y="0 : 1000 : 0" inkscape:vp_x="0 : 330.5 : 1" sodipodi:type="inkscape:persp3d" inkscape:vp_z="584 : 330.5 : 1" id="perspective12" inkscape:persp3d-origin="292 : 220.33333 : 1">
		</inkscape:perspective>
</defs>
<g id="g2821" opacity="0.3">
	<g id="g2818" transform="translate(-0.99025124,-22.77573)">
		<path id="path2828" fill="#FFFFFF" d="M-4.156-31.09c0.697,0.719,1.27,1.751,1.276,2.295c0.006,0.543,0.458,0.704,1.004,0.357
			c1.709-1.082,3.242,0.474,1.99,2.019c-1.674,2.064-0.177,5.459,2.276,5.162c1.581-0.194,2.406,0.675,3.555,3.731
			c1.904,5.081,4.459,15.379,5.568,22.438c1.137,7.238,6.398,20.717,7.884,20.196c1.747-0.613,2.817,1.78,1.252,2.797
			c-0.991,0.644-1.023,0.889-0.118,0.889c0.688,0.001,1.26,0.845,1.271,1.875c0.012,1.031,1.844,3.822,4.071,6.204
			c2.226,2.382,4.066,5.229,4.087,6.33c0.058,3.089,12.881,19.354,15.236,19.327c1.085-0.012,1.979,0.651,1.989,1.478
			c0.009,0.825,0.692,1.492,1.517,1.483c0.824-0.009,1.505,0.433,1.511,0.983s0.748,0.991,1.651,0.981
			c0.901-0.01,2.246,0.763,2.988,1.716c0.825,1.059,1.356,1.248,1.366,0.484c0.028-1.955,3.014-1.499,3.053,0.465
			c0.031,1.501,0.176,1.535,1.023,0.238c0.851-1.305,1.2-1.241,2.548,0.471c1.462,1.857,1.623,1.871,2.533,0.221
			c1.351-2.449,2.845-2.219,3.014,0.466c0.108,1.691,0.25,1.813,0.58,0.493c0.534-2.14,3.285-2.379,3.309-0.288
			c0.013,1.158,1.329,1.488,5.767,1.448c3.162-0.028,6.723,0.198,7.913,0.502c1.564,0.4,2.256,0.059,2.487-1.22
			c0.303-1.675,0.428-1.67,2.216,0.075c1.85,1.809,1.923,1.807,3.249-0.049c1.324-1.854,1.359-1.854,1.458,0.04
			c0.055,1.066,0.321,1.374,0.591,0.685c0.581-1.491,3.318-1.728,3.335-0.288c0.006,0.55,0.909,0.989,2.011,0.977
			c1.1-0.013,1.995-0.473,1.988-1.023c-0.006-0.55,0.664-1.008,1.489-1.017c0.823-0.009,1.505,0.433,1.511,0.983
			c0.019,1.59,4.016,1.112,4.632-0.553c0.662-1.786,3.339-2.062,3.358-0.348c0.008,0.655,0.679,0.31,1.491-0.767
			c1.434-1.9,1.521-1.904,2.933-0.125c1.688,2.13,3.582,1.356,3.55-1.45c-0.013-1.066,0.653-1.948,1.478-1.958
			s1.505,0.371,1.51,0.844c0.006,0.473,1.133,0.632,2.504,0.354c1.544-0.312,2.487-1.183,2.475-2.278
			c-0.015-1.256,1.069-1.99,3.72-2.519c2.056-0.41,4.036-1.24,4.402-1.847c0.466-0.774,1.137-0.719,2.255,0.188
			c1.336,1.084,1.588,1.032,1.572-0.331c-0.025-2.183,2.71-2.108,3.312,0.089c0.294,1.074,0.51,0.686,0.562-1.006
			c0.073-2.367,0.506-2.756,3.098-2.786c1.658-0.019,3.928,0.517,5.045,1.192c1.635,0.988,2.186,0.973,2.824-0.081
			c2.281-3.759,25.987,1.985,27.347,6.627c0.468,1.594,0.714,1.787,0.769,0.601c0.088-1.912,0.467-2.026,3.839-1.164
			c1.772,0.453,2.295,1.354,2.446,4.208c0.159,3.019,0.257,3.167,0.576,0.876c0.212-1.516,0.598-2.757,0.857-2.76
			c1.217-0.014,8.214,3.927,9.352,5.269c0.703,0.828,1.979,7.485,2.83,14.792c0.853,7.306,2.016,15.08,2.586,17.273
			c0.568,2.194,1.381,7.885,1.805,12.649c0.646,7.282,1.067,8.735,2.636,9.127c2.609,0.649,2.371,3.417-0.341,3.973
			c-1.563,0.32-1.224,0.489,1.121,0.556c2.981,0.087,3.304,0.358,2.793,2.355c-0.318,1.241-0.577,2.818-0.577,3.507
			c0,0.687-1.124,1.263-2.499,1.279s-2.494,0.514-2.487,1.108c0.007,0.668,1.103,0.826,2.874,0.415
			c2.337-0.541,2.965-0.287,3.422,1.382c0.45,1.643,0.088,2.05-1.846,2.072c-2.828,0.032-3.179,2.45-0.831,5.722
			c0.85,1.182,1.129,2.397,0.625,2.717c-0.5,0.318-0.652,1.521-0.337,2.672c0.774,2.825-1.148,3.877-7.256,3.964
			c-4.267,0.062-5.495-0.367-7.818-2.738c-1.517-1.548-3.048-4.481-3.401-6.52c-0.559-3.208-0.357-3.784,1.488-4.289
			c1.766-0.483,2.125-1.332,2.085-4.9c-0.046-3.967-0.274-4.34-2.803-4.603c-2.163-0.224-2.829-0.873-3.102-3.03
			c-0.638-5.042-2.216-2.802-2.13,3.025c0.057,3.781,1.14,8.632,3.162,14.167c3.412,9.332,3.91,13.77,1.648,14.669
			c-1.097,0.435-1.476,2.174-1.426,6.524c0.155,13.525-9.284,22.344-24.185,22.595l-6.94,0.116l-1.543-6.815l-1.543-6.814
			l-5.168-2.216c-8.136-3.487-12.519-4.655-15.006-4.001c-2.021,0.531-2.374,1.42-2.91,7.334c-0.337,3.703-1.089,7.319-1.672,8.036
			c-1.535,1.894-7.837,1.675-11.873-0.411c-1.914-0.99-6.2-3.443-9.524-5.451c-5.868-3.545-6.235-3.628-12.803-2.909
			c-5.529,0.605-7.26,0.425-9.512-0.987c-2.74-1.721-2.744-1.719-0.938,0.281c1.449,1.603,3.396,2.082,9.644,2.372
			c7.137,0.33,8.373,0.718,14.005,4.387c3.398,2.212,7.814,4.543,9.814,5.179c4.106,1.304,11.975,0.648,13.712-1.141
			c0.658-0.681,1.114-4.248,1.066-8.376l-0.082-7.19l2.875,0.306c4.611,0.488,10.925,2.934,13.369,5.18
			c1.297,1.19,2.812,4.411,3.553,7.556c1.123,4.763,1.723,5.653,4.588,6.812c4.514,1.826,8.721,1.603,16.278-0.86
			c3.532-1.152,7.034-1.866,7.785-1.588c0.763,0.282,1.081,0.059,0.723-0.506c-0.352-0.557,0.705-2.58,2.352-4.5
			c1.665-1.939,3.864-6.428,4.955-10.112c3.47-11.701,5.516-13.987,13.543-15.124l4.83-0.683l8.09,7.848
			c4.448,4.318,9.398,8.665,10.998,9.662c1.6,0.998,3.546,3.292,4.324,5.1c0.78,1.807,2.776,4.468,4.432,5.911
			c3.603,3.136,3.811,4.279,0.783,4.332c-6.286,0.109-6.572,0.553-6.076,9.396c0.253,4.486,0.024,10.813-0.511,14.063l-0.97,5.909
			l5.128,5.076c2.821,2.793,5.101,5.513,5.062,6.047c-0.036,0.532-1.735,3.603-3.775,6.82l0,0l0,0l-3.709,5.854l0.627,11.921
			l0.628,11.922l-4.363,2.04c-5.687,2.659-8.508,2.654-9.978-0.015l-1.181-2.15l-1.603,2.147c-0.883,1.182-2.503,2.15-3.603,2.151
			c-1.102,0.001-3.235,0.317-4.742,0.703c-2.466,0.631-2.745,0.436-2.772-1.913c-0.027-2.387-0.383-2.613-4.029-2.571
			c-3.551,0.04-4.003-0.225-4.027-2.339c-0.029-2.578-3.728-5.573-6.839-5.538c-1.014,0.012-2.725-0.63-3.802-1.424
			c-1.075-0.797-3.017-1.448-4.313-1.451c-1.295-0.004-4.151-1.395-6.347-3.093c-3.488-2.698-4.304-2.941-6.46-1.927
			c-1.999,0.938-3.179,0.812-6.197-0.659c-2.049-1-4.312-1.604-5.023-1.341c-0.714,0.263-3.089-0.735-5.277-2.216
			c-3.736-2.525-4.434-2.647-11.223-1.962c-5.927,0.597-8.197,0.376-12.522-1.22c-2.907-1.072-6.905-1.931-8.888-1.908
			c-2.021,0.023-5.788-1.116-8.575-2.592c-4.795-2.539-4.953-2.759-4.427-6.199c0.522-3.424,0.375-3.635-3.632-5.25
			c-5.062-2.04-6.277-1.45-5.478,2.658c0.885,4.546-0.329,6.05-3.688,4.565c-1.473-0.649-2.925-0.929-3.229-0.619
			c-0.302,0.311-0.778,3.055-1.058,6.1c-0.42,4.575-0.878,5.635-2.646,6.099c-1.177,0.31-4.02,2.212-6.318,4.226
			c-3.591,3.145-4.92,3.684-9.431,3.824c-3.271,0.102-6.534-0.491-8.659-1.575c-2.704-1.379-3.903-1.506-5.804-0.614
			c-3.29,1.545-3.934,1.45-6.178-0.902c-1.395-1.463-2.912-1.947-5.309-1.689c-3.308,0.354-3.358,0.435-3.601,5.755
			c-0.135,2.968,0.236,5.867,0.824,6.441c1.711,1.673,1.275,4.482-0.878,5.668c-2.267,1.245-2.582,5.035-0.667,8.024
			c0.994,1.549,1.009,2.355,0.077,3.735c-2.02,2.991-7.124,13.332-7.111,14.409c0.024,2.118-6.92,8.214-10.261,9.008
			c-3.096,0.735-3.799,0.488-6.446-2.269c-1.635-1.701-5.622-7.562-8.86-13.026c-3.24-5.463-9.402-14.619-13.695-20.345
			 M238.068,228.824l-5.071-5.018l0.953-5.354c0.524-2.944,0.906-9.372,0.85-14.283c-0.092-8.033-0.277-8.877-1.846-8.399
			c-0.96,0.292-4.663,1.104-8.229,1.808s-6.654,1.422-6.861,1.598c-0.205,0.177-1.967,11.004-3.909,24.063
			c-2.666,17.915-4.016,24.414-5.5,26.471c-1.381,1.912-1.651,3.039-0.902,3.771c0.748,0.731,0.425,1.968-1.088,4.145
			c-2.727,3.923-6.964,4.191-11.605,0.733c-2.936-2.187-3.339-2.262-3.907-0.731c-0.728,1.964,1.861,4.231,4.793,4.198
			c2.784-0.032,7.756,3.748,7.78,5.919c0.017,1.441,0.884,1.934,3.775,2.139c2.766,0.198,4.021,0.86,4.771,2.52
			c0.577,1.273,1.6,2.022,2.353,1.724c0.732-0.292,2.422-0.542,3.752-0.557c1.397-0.016,2.41-0.613,2.401-1.421
			c-0.039-3.395,4.966-2.193,6.244,1.499c0.295,0.852,1.863,0.472,5.323-1.294c4.669-2.378,4.921-2.718,5.175-6.957
			c0.146-2.451-0.257-7.26-0.894-10.688l-1.159-6.232l3.877-6.347c2.134-3.49,3.905-6.783,3.938-7.315
			C243.113,234.279,240.858,231.584,238.068,228.824z M238.129,189.152c-1.394-1.618-2.544-3.809-2.556-4.866
			c-0.013-1.058-0.499-1.917-1.079-1.91s-5.57-4.273-11.094-9.513l-10.043-9.523l-4.756,0.685
			c-5.927,0.853-8.581,3.709-10.74,11.555c-1.948,7.079-3.656,10.606-6.411,13.232l-2.126,2.026l3.568,5.243
			c6.987,10.268,7.349,11.335,5.505,16.332c-2.089,5.662-3.574,5.661-2.863-0.004c0.487-3.881,0.104-5.146-3.134-10.34
			c-5.391-8.65-5.368-8.641-13.77-6.033c-10.09,3.132-19.402,1.472-20.553-3.662c-1.815-8.087-3.768-11.291-7.944-13.025
			c-2.28-0.945-5.384-1.993-6.899-2.328l-2.758-0.608l0.08,6.995c0.072,6.275-0.164,7.16-2.298,8.591
			c-5.9,3.964-14.372,2.583-24.959-4.065c-5.695-3.579-6.93-3.945-14.145-4.197l-7.904-0.278l6.446,5.704
			c4.991,4.418,7.157,5.696,9.608,5.668c1.891-0.021,3.389-0.644,3.722-1.542c0.878-2.368,3.881-1.812,7.459,1.383
			c1.807,1.612,5.643,3.693,8.526,4.624s12.834,5.427,22.115,9.989c12.539,6.163,16.731,8.678,16.322,9.777
			c-0.347,0.942,1.941,3.935,6.277,8.204l6.824,6.722l5.305-0.686c5.248-0.679,5.403-0.619,15.184,5.732l9.879,6.415l3.526-23.874
			l3.521-23.874l5.116-1.173c2.813-0.646,8.371-1.736,12.352-2.424c3.981-0.688,7.234-1.422,7.232-1.631
			C240.664,192.263,239.522,190.771,238.129,189.152L238.129,189.152z M211.278,135.033c-0.328,0.335,0.266,0.565,1.318,0.51
			c1.165-0.061,1.396-0.301,0.597-0.611C212.469,134.651,211.606,134.696,211.278,135.033L211.278,135.033L211.278,135.033z
			 M209.393,153.841c-2.966-0.402-2.76-1.969,0.37-2.794c1.827-0.48,2.253-0.98,1.48-1.735c-0.599-0.583-1.102-2.521-1.122-4.302
			c-0.02-1.781-0.387-3.449-0.812-3.706c-0.423-0.255-0.942-6.082-1.152-12.946c-0.209-6.865-1.117-16.23-2.015-20.813
			c-0.9-4.583-2.186-13.5-2.859-19.819c-1.292-12.15-2.08-13.943-7.255-16.546c-2.657-1.336-2.767-1.292-2.74,1.05
			c0.016,1.343-0.405,2.597-0.931,2.787c-1.724,0.619-2.887,22.722-1.999,38.003c0.762,13.143,1.047,14.738,2.712,15.154
			c1.209,0.301,1.871,1.372,1.891,3.058c0.025,2.215,0.467,2.589,3.029,2.56c2.934-0.034,3.001,0.075,3.058,4.975
			c0.043,3.772-0.433,5.438-1.923,6.744c-2.544,2.229-2.482,5.339,0.171,8.633c1.816,2.256,2.85,2.603,7.611,2.548
			c3.963-0.045,5.392-0.414,5.087-1.309C211.761,154.695,210.591,154.002,209.393,153.841L209.393,153.841L209.393,153.841z
			 M198.917,240.917c-8.103-5.21-9.999-6.018-14.032-5.972c-4.214,0.048-15.004,3.333-16.98,5.169c-0.436,0.405,2.177,2.655,5.808,5
			c7.032,4.541,7.072,4.591,5.67,6.867c-0.677,1.094-0.07,2.189,2.313,4.183c4.043,3.384,6.456,3.453,7.881,0.228
			c1.403-3.176,1.708-3.156,6.323,0.428c2.095,1.626,4.595,2.948,5.556,2.938c2.367-0.027,5.162-4.425,3.713-5.841
			c-0.765-0.748-0.477-1.884,0.988-3.897c1.139-1.562,2.082-2.896,2.1-2.959C208.272,246.995,204.07,244.232,198.917,240.917z
			 M197.141,206.616c-0.28,0.726-0.235,1.586,0.101,1.916c0.336,0.329,0.565-0.265,0.511-1.317
			C197.692,206.049,197.451,205.815,197.141,206.616L197.141,206.616z M146.23,154.861c-6.885-0.813-13.197-1.647-14.021-1.851
			c-0.997-0.244-2.995,2.204-5.918,7.262c-4.666,8.065-9.544,12.449-13.91,12.499c-4.606,0.053-12.539-2.756-14.994-5.312
			c-1.316-1.369-2.704-2.486-3.084-2.482c-0.379,0.005-1.419,1.985-2.311,4.402c-1.321,3.581-1.395,4.876-0.396,7.005
			c1.185,2.524,1.511,2.607,9.854,2.513l8.631-0.099l7.976,4.909c6.278,3.864,8.862,4.898,12.147,4.861
			c4.755-0.055,5.358-1.113,5.288-9.289c-0.032-3.908,0.383-5.01,2.402-6.365c2.913-1.956,5.985-1.483,15.499,2.388
			c7.049,2.868,10.14,6.521,10.207,12.063c0.076,6.343,7.321,7.044,17.986,1.738c6.844-3.406,10.49-9.104,11.158-17.442
			c0.444-5.543,0.386-5.705-2.141-5.977c-4.424-0.475-3.974-2.763,0.552-2.814c2.309-0.026,4.172-0.576,4.407-1.301
			c0.3-0.924-4.491-1.777-18.206-3.241C167.123,157.236,153.115,155.675,146.23,154.861L146.23,154.861z M192.543,150.474
			c-1.498-3.9-3.031-10.238-3.411-14.083l-0.689-6.993l-9.511-0.891l-9.511-0.891l0.28-5.212c0.315-5.897,0.711-5.637-10.272-6.707
			l-5.86-0.571l0.513-5.171c0.967-9.738,2.436-42.742,1.924-43.242c-0.278-0.274-1.689-0.034-3.137,0.534
			c-2.492,0.98-2.622,1.389-2.547,8.032l0.08,6.997l-16.254-0.305c-10.617-0.2-15.559,0.016-14.244,0.62
			c1.105,0.508,8.198,0.885,15.761,0.837l13.75-0.087l0.068,7.75c0.068,7.497-2.151,28.102-3.136,29.107
			c-0.267,0.272-3.975,0.045-8.243-0.503c-4.266-0.549-7.949-0.802-8.185-0.562c-0.951,0.973,1.069,1.605,8.08,2.529
			c4.05,0.534,7.655,1.25,8.014,1.592c0.359,0.341,0.157,4.564-0.45,9.384l-1.101,8.763l3.227-0.037
			c3.581-0.041,3.709-0.341,4.839-11.36c0.661-6.447-0.289-6.002,9.119-4.277c3.203,0.587,3.244,0.665,2.595,4.776
			c-1.247,7.851-0.902,10.15,1.582,10.473c2.367,0.308,2.399,0.714,0.857,11.421c-0.217,1.516-0.295,2.775-0.171,2.801
			c2.874,0.585,28.764,3.104,28.76,2.798C195.267,157.758,194.039,154.373,192.543,150.474L192.543,150.474z M188.297,72.896
			c-0.553,0.006-1.071-1.45-1.156-3.237l-0.156-3.249l-0.598,2.95c-0.795,3.926-2.512,3.877-2.94-0.085
			c-0.432-3.979-1.167-4.528-9.663-7.209c-6.29-1.985-6.996-2.035-7.808-0.544c-1.303,2.391-4.441,2.055-5.257-0.562
			c-0.677-2.177-0.722-2.183-1.527-0.232c-1.139,2.747-3.642,51.762-2.69,52.617c0.421,0.376,3.805,0.96,7.521,1.299l6.758,0.614
			l0.026-5.331c0.016-2.932,0.298-7.584,0.632-10.338l0.605-5.007l8.2,0.256l8.199,0.257l0.298-5.854
			C189.373,76.792,189.265,72.885,188.297,72.896z M181.505,96.469c-3.887-0.346-7.292-0.397-7.567-0.113
			c-0.276,0.282-0.855,5.176-1.286,10.872c-0.434,5.697-0.987,12.234-1.236,14.525l-0.451,4.165l5.226,0.572
			c2.875,0.314,6.916,0.798,8.984,1.074l3.756,0.503l-0.178-15.485l-0.177-15.484L181.505,96.469L181.505,96.469z M171.256,245.593
			l-6.261-4.303l-5.114,2.145c-2.812,1.179-5.788,2.199-6.611,2.267c-0.825,0.067-6.95-5.553-13.61-12.49
			s-12.391-12.608-12.736-12.604c-0.586,0.007-5.724,18.791-6.033,22.06c-0.102,1.092,1.337,1.648,5.367,2.079
			c3.027,0.322,7.316,1.346,9.526,2.272c3.184,1.335,5.591,1.536,11.574,0.97c7.222-0.684,7.725-0.59,11.438,2.112
			c2.135,1.556,4.655,2.616,5.6,2.358c0.942-0.257,3.138,0.246,4.878,1.122c1.741,0.875,3.71,1.272,4.378,0.884
			c2.129-1.24,4.703-3.751,4.276-4.167C177.7,250.076,174.699,247.958,171.256,245.593z M162.434,219.054
			c0.384-0.749-1.137,0.572-3.379,2.935c-3.519,3.706-3.925,4.579-2.951,6.348c0.81,1.474,0.828,2.424,0.062,3.368
			c-0.785,0.97-0.643,1.66,0.548,2.624c1.072,0.869,1.497,2.43,1.263,4.649c-0.282,2.693-0.052,3.227,1.195,2.745
			c0.85-0.327,5.027-2.057,9.279-3.843l7.734-3.247l-7.227-7.11C164.198,222.838,161.973,219.952,162.434,219.054L162.434,219.054z
			 M159.917,141.866c-3.395-0.314-6.396-0.345-6.669-0.064c-0.272,0.278-0.673,2.978-0.889,5.996
			c-0.441,6.157-0.597,6.016,7.56,6.874l5.198,0.548l0.336-4.28c0.184-2.355,0.401-5.229,0.485-6.39
			C166.073,142.674,165.402,142.375,159.917,141.866L159.917,141.866z M159.163,126.973c-2.065-0.24-4.033-0.154-4.371,0.19
			c-0.34,0.344-0.837,3.203-1.104,6.351l-0.487,5.724l3.479,0.612c1.912,0.336,3.712,0.373,3.994,0.083
			c0.438-0.449,1.801-7.696,2.138-11.384C162.869,127.922,161.228,127.212,159.163,126.973L159.163,126.973z M147.469,210.028
			c-6.855-3.583-13.374-6.504-14.483-6.491c-1.18,0.014-3.65,2.023-5.97,4.86l-3.955,4.838l12.132,12.82
			c18.166,19.197,17.716,18.794,19.384,17.377c2.3-1.954,2.524-6.916,0.397-8.798c-1.35-1.194-1.562-1.976-0.792-2.926
			c0.734-0.907,0.73-1.881-0.016-3.238c-0.875-1.591-0.451-2.736,2.348-6.342c1.879-2.419,3.418-4.666,3.42-4.992
			C159.933,216.81,154.325,213.61,147.469,210.028z M147.679,143.184c-3.348-0.352-3.437-0.265-4.018,3.936
			c-0.729,5.263-0.146,6.294,3.546,6.251c2.965-0.033,3.069-0.264,3.752-8.185C151.06,144.019,150.11,143.441,147.679,143.184z
			 M148.19,63.854c-0.645-2.417-0.816-2.56-0.891-0.74c-0.097,2.331-3.029,3.29-3.17,1.036c-0.043-0.688-0.491-0.185-0.995,1.115
			c-0.559,1.44-1.47,2.161-2.333,1.84c-0.778-0.288-1.657,0.124-1.952,0.918c-0.338,0.912-1.964,1.46-4.417,1.488
			c-4.33,0.049-10.013,1.835-11.87,3.729c-0.67,0.684-1.615,1.399-2.102,1.591c-0.484,0.191-1.163,1.296-1.509,2.455
			c-0.599,2.011-0.189,2.128,9.149,2.641c17.644,0.965,20.078,0.75,20.543-1.828C149.295,74.511,149.058,67.11,148.19,63.854z
			 M141.504,85.432c-7.76,0.089-7.441-0.245-8.487,8.848l-0.608,5.257l6.014-0.069c3.306-0.038,6.697,0.187,7.537,0.497
			c1.532,0.567,1.913-1.281,2.339-11.36l0.139-3.252L141.504,85.432z M139.867,101.201c-4.267-0.234-7.858-0.338-7.981-0.23
			c-0.749,0.651-2.006,15.089-1.366,15.695c0.429,0.407,3.988,1.014,7.907,1.348l7.124,0.607l0.9-7.876
			c0.495-4.332,0.962-8.157,1.036-8.498C147.561,101.905,144.132,101.435,139.867,101.201L139.867,101.201z M142.128,124.041
			c-1.517-0.284-6.525-0.996-11.13-1.585c-9.217-1.177-10.104-0.795-10.076,4.338c0.009,1.443-0.234,3.956-0.54,5.583l-0.557,2.957
			l11.343,1.476c6.24,0.811,11.506,1.309,11.705,1.105c0.301-0.309,1.502-8.016,1.899-12.189
			C144.834,125.082,143.643,124.324,142.128,124.041L142.128,124.041z M131.219,138.493c-12.596-1.622-11.512-2.169-12.563,6.332
			l-0.575,4.635l8.307,1.073c4.568,0.591,9.742,1.306,11.498,1.59c3.055,0.494,3.217,0.352,3.778-3.341
			c0.321-2.121,0.718-4.532,0.88-5.359C143.146,140.337,142.139,139.899,131.219,138.493z M126.182,85.175
			c-19.457-1.728-17.618-1.839-18.316,1.094c-0.348,1.455-0.387,2.888-0.085,3.183c0.543,0.531,18.693,3.095,21.912,3.096
			c1.607,0.001,2.44-1.622,2.648-5.163C132.418,86.073,131.149,85.617,126.182,85.175L126.182,85.175z M127.966,94.831
			c-0.229,0.233-0.778,2.494-1.221,5.024c-0.702,4.005-0.571,4.655,0.997,5.047c1.491,0.373,1.935-0.437,2.578-4.701
			c0.603-4.02,0.476-5.221-0.584-5.472C128.991,94.551,128.195,94.597,127.966,94.831L127.966,94.831L127.966,94.831z
			 M126.426,106.424c-1.631-0.212-2.182-0.87-1.994-2.379c0.242-1.936-0.476-2.157-10.036-3.085
			c-5.662-0.551-10.657-0.63-11.101-0.178c-0.947,0.969-2.87,15.097-2.151,15.8c0.271,0.266,5.147,1.055,10.837,1.754
			c5.689,0.701,11.558,1.477,13.039,1.726c2.409,0.406,2.733,0.114,3.059-2.764C129.062,108.602,128.777,106.731,126.426,106.424
			L126.426,106.424z M126.683,201.085c-1.368-0.417-2.487-0.064-3.268,1.029c-0.975,1.366-1.701,1.475-4.051,0.613
			c-2.838-1.042-2.856-1.024-2.184,2.149c0.373,1.761,1.438,4.023,2.367,5.025c1.626,1.755,1.831,1.683,5.467-1.95
			C129.286,203.686,129.694,202.003,126.683,201.085L126.683,201.085z M127.954,152.584c-0.139-0.003-6.948-0.825-15.132-1.827
			c-8.185-1.004-15.057-1.821-15.272-1.819c-0.215,0.003-0.382,0.75-0.371,1.661c0.01,0.91-1.146,3.216-2.565,5.125l-2.585,3.47
			l1.998,2.631c5.998,7.898,18.114,11.371,23.749,6.807C121.56,165.562,129.772,152.615,127.954,152.584L127.954,152.584z
			 M120.274,93.281c-2.893-0.324-7.083-0.822-9.315-1.106c-3.688-0.467-4.167-0.266-5.263,2.212c-0.662,1.5-0.926,3.003-0.586,3.341
			c0.773,0.767,19.42,2.642,20.034,2.013c0.247-0.253,0.436-1.676,0.419-3.164C125.534,94.064,125.161,93.83,120.274,93.281z
			 M121.604,214.396l-3.272-3.733l-4.888,5.077c-2.688,2.792-4.341,5.071-3.674,5.063c2.255-0.025,1.262,2.777-2.01,5.676
			c-1.792,1.587-3.051,2.769-2.801,2.627c0.25-0.144,1.398,0.336,2.551,1.062c1.15,0.728,3.372,1.621,4.934,1.987
			c2.653,0.622,2.8,0.912,2.241,4.462c-0.446,2.838-0.188,4.127,1.02,5.105c1.169,0.946,1.915,1.005,2.695,0.206
			c1.056-1.078,6.309-19.323,6.421-22.298C124.85,218.805,123.404,216.45,121.604,214.396L121.604,214.396L121.604,214.396z
			 M113.923,193.795c-1.678-0.038-1.562,1.068,0.395,3.794c1.785,2.488,6.056,4.452,7.581,3.486
			C122.998,200.378,115.833,193.836,113.923,193.795z M110.668,119.927c-5.046-0.613-9.534-0.746-9.976-0.296
			c-0.439,0.452-0.896,3.509-1.012,6.794l-0.21,5.974l6.73,0.597c3.702,0.327,8.07,0.874,9.707,1.213
			c2.944,0.612,2.979,0.566,3.298-4.203c0.178-2.65,0.394-5.754,0.479-6.893C119.827,121.235,118.987,120.938,110.668,119.927
			L110.668,119.927z M112.255,135.345c-3.167-0.324-7.607-0.816-9.867-1.095l-4.108-0.505l-0.501,6.334
			c-0.324,4.089-0.113,6.568,0.597,6.996c1.815,1.093,16.896,1.951,17.792,1.011c0.752-0.788,1.342-4.242,1.709-10.016
			C117.995,136.185,117.333,135.864,112.255,135.345z M115.685,73.822c-1.068,0.909-4.727,1.426-11.006,1.558
			c-7.36,0.154-9.764,0.564-11.054,1.884c-0.906,0.927-1.359,1.968-1.005,2.314c0.542,0.529,19.643,3.054,23.533,3.11
			c0.841,0.013,1.231-1.655,1.192-5.104C117.293,72.981,117.124,72.6,115.685,73.822z M115.288,204.347
			c-1.976-6.257-3.158-7.572-6.77-7.531c-4.122,0.047-6.487-1.335-13.15-7.684l-5.816-5.542l-2.139,2.188l-2.138,2.189l5.905,6.739
			c3.245,3.707,8.671,9.971,12.052,13.921c3.383,3.947,6.463,7.177,6.845,7.172c0.965-0.011,6.794-5.105,6.771-5.916
			C116.836,209.519,116.135,207.029,115.288,204.347z M107.725,218.658c0.771-0.788-1.103-3.569-6.655-9.883
			c-4.25-4.831-8.087-8.782-8.527-8.777c-0.441,0.006-0.792,0.743-0.781,1.641c0.01,0.896-1.325,5.689-2.964,10.649
			c-2.144,6.481-2.673,9.32-1.885,10.091c0.604,0.592,1.108,2.073,1.123,3.296c0.016,1.373,1.646,3.578,4.27,5.771l4.242,3.551
			l6.192-6.279c4.865-4.933,5.947-6.566,5.054-7.621C106.974,220.131,106.955,219.445,107.725,218.658z M99.52,82.625
			c-3.514-0.392-6.566-0.532-6.784-0.309c-0.218,0.223-0.636,2.651-0.93,5.397l-0.532,4.992l3.878,0.595
			c7.853,1.206,9.24,0.839,10.24-2.705C107.185,84.234,106.58,83.414,99.52,82.625L99.52,82.625z M95.924,94.968l-5.118,0.043
			l-0.52,4.237c-0.284,2.331-0.33,4.421-0.099,4.647c0.229,0.225,2.568,0.591,5.195,0.812l4.777,0.403l1.481-4.37
			C103.428,95.475,102.867,94.91,95.924,94.968L95.924,94.968z M99.635,233.916c-1.358,1.306-2.358,2.459-2.221,2.564
			c0.136,0.104,1.266,0.706,2.512,1.335c2.151,1.089,2.261,0.963,2.221-2.564l-0.043-3.708L99.635,233.916z M95.083,106.503
			c-2.529-0.35-4.852-0.379-5.158-0.064c-0.309,0.314-0.843,2.605-1.191,5.089l-0.634,4.517l3.092-0.021
			c1.7-0.012,4.065,0.228,5.256,0.533c2.366,0.607,3.013-0.678,3.155-6.279C99.678,107.291,99.457,107.106,95.083,106.503
			L95.083,106.503z M93.077,117.969l-5.074-0.46l-1.004,8.598c-1.415,12.137-1.415,12.138,3.294,17.917
			c4.835,5.93,5.614,5.449,5.775-3.568c0.049-2.75,0.639-8.383,1.313-12.516c0.673-4.133,1.122-7.964,0.997-8.512
			C98.255,118.878,95.868,118.222,93.077,117.969z M85.417,141.397c-0.187,0.191-0.708,2.459-1.161,5.041
			c-0.808,4.616-0.76,4.741,2.915,7.583l3.735,2.891l2.086-2.134l2.087-2.134l-4.664-5.796
			C87.854,143.659,85.603,141.207,85.417,141.397z M91.025,232.557c-2.271-2.006-4.331-3.442-4.575-3.191
			c-0.723,0.738,3.521,14.44,5.196,16.774l1.538,2.143l0.503-2.4c0.276-1.318,0.657-3.752,0.842-5.403
			c0.188-1.653,0.405-3.29,0.483-3.64C95.093,236.49,93.297,234.562,91.025,232.557L91.025,232.557z M7.011,182.806
			c2.272-1.066,8.418-9.684,8.395-11.769c-0.021-1.792,4.749-5.063,9.924-6.806c4.98-1.68,10.085-5.621,12.466-9.625
			c1.084-1.824,9.961-9.358,12.876-10.929c1.137-0.613,4.313-1.438,7.062-1.833c6.191-0.895,10.238,0.916,20.114,8.999
			c11.567,9.466,12.755,10.9,12.033,14.528c-0.344,1.739-0.778,5.189-0.962,7.667l-0.335,4.504l0.866-4.01
			c0.477-2.206,1.279-5.366,1.785-7.021c0.504-1.656,0.951-3.407,0.994-3.892c0.041-0.485-3.355-4.076-7.547-7.979l0,0
			c-10.382-9.665-17.305-13.64-24.491-14.061c-5.36-0.313-6.105-0.046-15.318,5.526c-6.332,3.829-9.677,6.456-9.664,7.59
			c0.034,2.959-3.213,5.928-8.62,7.882c-6.588,2.379-9.807,5.178-15.35,13.349c-5.316,7.835-8.375,9.432-12.462,6.505
			 M88.196,75.665c-1.724-0.324-4.367-0.575-5.876-0.558c-2.699,0.031-2.762,0.176-3.774,8.861
			c-1.582,13.557-1.801,12.869,4.273,13.397c2.89,0.252,5.405,0.315,5.591,0.141c0.313-0.297,2.575-16.083,2.81-19.626
			C91.291,76.816,90.247,76.051,88.196,75.665z M85.532,234.581c-1.517-5.483-2.986-10.949-3.263-12.147
			c-0.276-1.197-1.238-2.45-2.135-2.782c-2.673-0.99-22.456-3.339-23.047-2.736c-0.517,0.531-4.638,30.105-4.712,33.827
			c-0.021,0.979,0.754,2.051,1.722,2.379c0.965,0.329,2.731,1.454,3.923,2.499c1.414,1.242,2.393,1.525,2.818,0.819
			c0.949-1.573,5.708-1.383,10.127,0.405c5.444,2.201,10.839,1.053,15.563-3.314c2.083-1.927,4.253-3.509,4.817-3.515
			c0.565-0.007,0.108-1.239-1.013-2.739C89.21,245.776,87.05,240.064,85.532,234.581L85.532,234.581z M87.119,192.81
			c-3.546-3.728-4.994-4.309-7.187-2.878c-0.848,0.552-0.918,1.904-0.247,4.739c0.516,2.184,1.483,8.236,2.148,13.453
			c0.664,5.216,1.479,10.156,1.81,10.978c0.643,1.595,7.039-17.166,7.017-20.582C90.654,197.419,89.06,194.85,87.119,192.81z
			 M83,174.364c-1.671,0.577-3.385,1.365-3.809,1.749c-0.77,0.7,4.036,9.991,5.163,9.979c0.33-0.004,1.568-0.937,2.751-2.074
			c2.073-1.994,2.093-2.226,0.544-6.385C86.078,173.415,85.968,173.339,83,174.364L83,174.364z M87.846,99.718
			c-0.416-0.24-4.424-0.714-8.908-1.052l-8.152-0.615l-0.771,7.354c-0.891,8.494-1.252,8.167,10.192,9.259l6.363,0.609l0.901-6.367
			C88.7,100.231,88.7,100.213,87.846,99.718z M80.987,155.839c-6.909-6.024-16.314-12.525-18.09-12.506
			c-0.442,0.006-0.775,2.484-0.741,5.51c0.062,5.442,0.032,5.5-2.937,5.533c-2.334,0.027-2.995,0.478-2.977,2.034
			c0.015,1.333,0.689,1.992,2.023,1.978c2.578-0.029,2.542,1.338-0.131,5.041c-1.47,2.036-2.156,4.49-2.162,7.733
			c-0.008,4.243,0.243,4.785,2.334,5.057c2.249,0.292,2.318,0.552,1.771,6.48c-0.316,3.396-0.795,7.415-1.068,8.932
			c-0.45,2.506-0.226,2.753,2.469,2.722c3.228-0.036,4.137-1.761,4.094-7.771c-0.018-2.563,0.586-3.549,2.959-4.81
			c2.473-1.315,2.975-2.198,2.941-5.177c-0.042-3.643,0.127-3.729,4.474-2.313c0.552,0.181,3.076-0.325,5.608-1.122
			c3.313-1.043,4.88-2.172,5.598-4.032C89.201,163.809,88.57,162.451,80.987,155.839L80.987,155.839z M82.54,116.753
			c-9.862-1.633-13.771-1.736-13.788-0.367c-0.01,0.758-0.581,6.336-1.271,12.395s-1.182,11.014-1.092,11.013
			s2.062,0.938,4.382,2.087l4.218,2.088l0.276-2.639c0.253-2.43,0.608-2.624,4.432-2.43l4.157,0.209l0.878-7.268
			c0.483-3.998,0.92-8.906,0.971-10.908C85.789,117.575,85.544,117.251,82.54,116.753z M85.157,223.673
			c-0.474-0.285-0.637,0.591-0.361,1.945c0.275,1.355,0.673,2.463,0.884,2.461C86.452,228.07,85.991,224.177,85.157,223.673z
			 M79.81,140.324c-2.464-0.255-2.75,0.032-2.719,2.725c0.044,3.858,4.096,7.205,5.235,4.321c0.384-0.971,0.594-2.89,0.467-4.263
			C82.615,141.187,81.926,140.543,79.81,140.324L79.81,140.324z M80.561,183.908l-2.033-3.25l0.039,3.75
			c0.033,3.084,0.395,3.746,2.039,3.727C83.077,188.106,83.075,187.928,80.561,183.908z M79.667,204.646
			c-0.761-4.747-1.632-7.424-2.332-7.182c-0.615,0.213-1.194,1.024-1.289,1.806c-0.094,0.78-0.427,3.561-0.741,6.176
			c-0.534,4.453-0.758,4.76-3.509,4.791c-2.573,0.029-2.933,0.392-2.904,2.92c0.03,2.666,0.386,2.936,4.668,3.527
			c2.549,0.353,5.255,0.87,6.014,1.151C81.303,218.477,81.328,215.001,79.667,204.646z M70.771,74.699
			c-7.353-0.702-9.626,0.477-11.911,6.177c-2.519,6.287-2.572,7.251-0.426,7.787c1.649,0.411,1.923,1.061,1.468,3.479l-0.56,2.977
			l7.682,0.631c4.225,0.347,7.85,0.458,8.056,0.248c0.529-0.542,2.058-12.599,2.156-17.001l0.082-3.671L70.771,74.699L70.771,74.699
			z M75.067,175.966c-0.695-0.449-1.498,0.679-2.152,3.025c-0.708,2.538-1.698,3.847-3.083,4.068
			c-1.49,0.238-2.191,1.323-2.606,4.03c-1.234,8.037-1.132,8.21,4.895,8.141l5.436-0.062l-0.691-9.242
			C76.487,180.844,75.678,176.362,75.067,175.966z M72.21,197.231c-2.151,0.024-2.497,0.482-2.478,3.278
			c0.012,1.788-0.236,4.266-0.554,5.507c-0.488,1.909-0.184,2.253,1.981,2.228c2.284-0.026,2.596-0.486,2.894-4.283
			c0.184-2.339,0.406-4.817,0.495-5.506C74.64,197.741,73.636,197.214,72.21,197.231z M64.692,97.31
			c-4.672,0.053-4.899,0.188-5.471,3.223c-0.328,1.741-0.443,3.316-0.257,3.5c0.189,0.182,2.416,0.591,4.95,0.91l4.61,0.578
			l0.355-3.881c0.195-2.134,0.43-3.994,0.521-4.132C69.492,97.367,67.372,97.28,64.692,97.31L64.692,97.31z M64.552,106.937
			c-5.055-0.951-5.633-0.718-6.062,2.445c-0.379,2.812-0.196,3.002,2.839,2.968c1.785-0.021,3.96,0.227,4.834,0.551
			c1.23,0.457,1.581-0.083,1.555-2.393C67.689,107.968,67.218,107.439,64.552,106.937z M63.26,196.333l-4.438,0.051l-0.542,4.256
			c-0.298,2.341-0.615,6.508-0.706,9.259l-0.164,5.003l4.69,0.248l4.69,0.248l0.351-3.807c0.194-2.093,0.399-6.395,0.455-9.558
			l0.102-5.751L63.26,196.333z M57.545,113.58c-10.201-1.137-10.29-1.099-11.362,4.842c-0.722,3.994,0.867,12.645,2.287,12.453
			c0.539-0.074,2.213-0.438,3.722-0.812c2.681-0.664,2.744-0.579,2.794,3.84c0.051,4.478,0.082,4.519,3.469,4.48
			c1.88-0.021,4.075,0.205,4.879,0.503c1.17,0.434,1.637-1.219,2.342-8.277c0.484-4.851,0.927-10.435,0.984-12.408l0.105-3.59
			L57.545,113.58z M59.707,72.972c-0.874-0.324-2.431-0.579-3.457-0.567c-1.028,0.012-2.322-0.762-2.876-1.717
			c-0.656-1.134-1.324-1.387-1.918-0.728c-0.971,1.078-2.575,15.034-3.491,30.39c-0.617,10.352-0.252,11.113,5.329,11.077
			l3.066-0.02l1.078-10.198c1.088-10.284,0.964-10.942-2.285-12.047c-1.113-0.38,2.892-11.283,4.712-12.829
			C61.735,74.743,61.686,73.705,59.707,72.972L59.707,72.972L59.707,72.972z M58.726,143.386c-0.623,0.011-2.815,0.507-4.871,1.103
			c-3.393,0.984-3.734,1.402-3.699,4.518c0.032,2.829,0.48,3.539,2.546,4.033c4.262,1.02,7.324-0.353,7.661-3.429
			C60.774,145.907,60.104,143.365,58.726,143.386L58.726,143.386z M55.977,177.007c-1.654-1.057-2.538-2.547-2.572-4.336
			l-0.053-2.727l-1.927,2.522c-2.059,2.693-2.389,7.45-1.162,16.764c0.677,5.141,0.754,5.242,3.999,5.205
			c3.276-0.037,3.311-0.087,3.615-5.292c0.169-2.891,0.377-6.441,0.462-7.891C58.449,179.418,57.73,178.126,55.977,177.007
			L55.977,177.007z M55.253,157.349c-0.028-2.49-0.425-2.922-2.65-2.896c-2.227,0.025-2.522,0.364-1.989,2.272
			c0.346,1.232,0.66,4.455,0.699,7.159l0.071,4.916l3.356-3.956c2.36-2.777,2.939-4.047,1.952-4.263
			C55.88,160.406,55.272,159.04,55.253,157.349L55.253,157.349z M54.281,196.436c-3.452,0.039-5.592-0.932-5.611-2.544
			c-0.021-1.824-8.639-1.749-15.5,0.135c-4.847,1.331-4.977,1.463-4.67,4.785c0.174,1.878,1.051,6.397,1.947,10.041l1.631,6.626
			l4.163-0.504c7.692-0.931,8.653-1.342,8.641-3.7c-0.031-5.697,0.868-6.741,5.858-6.798c5.614-0.064,6.048-0.405,5.998-4.736
			C56.704,196.883,56.354,196.412,54.281,196.436L54.281,196.436z M53.475,205.615c-4.118-0.732-6.428,0.76-6.81,4.4
			c-0.354,3.373-0.241,3.512,2.848,3.477c5.264-0.061,6.513-0.965,6.135-4.44C55.421,206.979,54.697,205.832,53.475,205.615
			L53.475,205.615z M51.659,214.8c-1.784,0.325-6.728,0.935-10.985,1.354c-4.259,0.42-7.739,0.977-7.736,1.238
			c0.003,0.261,0.978,4.984,2.166,10.494l2.162,10.02l-2.022,2.202c-1.111,1.21-2.007,3.382-1.991,4.825
			c0.027,2.33,0.506,2.682,4.286,3.151c2.34,0.29,6.275,0.61,8.742,0.712l4.487,0.185l1.991-15.024
			C55.522,213.096,55.578,214.084,51.659,214.8L51.659,214.8z M48.573,70.743c-0.241,0.964-0.967,1.774-1.613,1.798
			c-1.083,0.04-10.009,13.99-9.315,14.558c0.168,0.139,2.391,0.45,4.939,0.693l4.631,0.444l0.882-8.124
			C49.086,70.979,49.234,68.089,48.573,70.743L48.573,70.743z M2.914,272.446c3.348,4.316,9.03,12.803,12.628,18.857
			c3.597,6.054,6.923,11.396,7.39,11.875c0.468,0.478,1.319-0.964,1.899-3.22c0.579-2.246,2.155-4.975,3.503-6.061
			c1.35-1.087,2.446-2.746,2.435-3.688c-0.011-0.942,1.117-3.096,2.507-4.786l2.528-3.076l-4.789-4.751l-4.788-4.752l1.753-4.008
			c1.433-3.277,2.322-4.071,4.872-4.349c2.337-0.254,3.19-0.892,3.408-2.545c0.159-1.218,1.263-2.525,2.467-2.92
			c1.197-0.393,3.728-2.019,5.623-3.612c1.895-1.593,4.13-2.919,4.967-2.945c1.268-0.04,1.241-0.208-0.157-1.002
			c-0.924-0.525-7.087-1.184-13.697-1.463l0,0c-13.729-0.582-12.217,0.762-14.284-12.684c-1.996-12.984-1.753-13-8.541,0.504
			c-6.342,12.61-7.93,15.185-9.381,15.201 M48.266,149.633c-0.713-1.099-1.471-0.91-3.973,0.983c-2.35,1.78-3.082,3.114-3.054,5.569
			c0.033,2.892-4.229,12.501-8.521,19.22l-1.596,2.498l7.915-0.833c5.432-0.572,8.296-1.343,9.123-2.458
			C49.568,172.719,49.657,151.776,48.266,149.633L48.266,149.633z M47.666,182.094l-0.664-2.908l-3.697,5.709l-3.694,5.708
			l4.51-0.052c4.282-0.049,4.504-0.19,4.361-2.8C48.399,186.239,48.032,183.694,47.666,182.094z M19.108,67.336
			c27.428,3.608,28.565,3.688,27.721,1.926c-0.329-0.685-0.885-2.028-1.234-2.986l0,0c-0.351-0.958-1.083-1.738-1.626-1.731
			c-1.089,0.012-2.728-1.862-10.667-12.196c-2.932-3.814-5.338-7.706-5.349-8.645c-0.011-0.938-0.99-2.913-2.176-4.386l-2.156-2.677
			l-2.651,2.597c-1.458,1.429-3.128,2.604-3.712,2.61c-0.585,0.006-2.277-1.778-3.761-3.966l-2.698-3.979L-0.82,43.708
			 M44.314,97.121c-1.241-0.239-5.077-0.678-8.524-0.973c-7.082-0.607-7.019-0.669-7.373,7.048l-0.228,4.974l8.013,1.112
			c4.406,0.613,8.575,1.141,9.264,1.174c0.879,0.042,1.229-1.862,1.177-6.42C46.575,98.118,46.372,97.518,44.314,97.121
			L44.314,97.121z M39.723,89.246c-10.917-0.904-11.052-0.879-10.471,1.979c0.557,2.745,1.359,3.024,11.038,3.854l6.257,0.536
			l-0.033-2.905C46.481,89.855,46.368,89.798,39.723,89.246z M45.722,262.468l-0.541-4.564l-3.339,1.609
			c-2.223,1.07-3.342,2.316-3.348,3.729c-0.005,1.683-0.809,2.26-3.875,2.787c-3.107,0.532-4.111,1.271-5.106,3.751
			c-1.198,2.99-1.083,3.241,3.612,7.899l4.849,4.812l-2.641,3.213c-1.479,1.799-2.405,3.928-2.106,4.841
			c0.353,1.078-0.638,2.449-2.924,4.049c-1.944,1.361-3.445,3.266-3.433,4.355c0.012,1.064-0.459,2.86-1.048,3.991
			c-1.589,3.053,0.22,4.342,4.117,2.933c4.064-1.47,6.199-4.131,10.43-13.001c1.907-3.996,3.878-7.527,4.381-7.847
			c0.503-0.318,0.614-3.154,0.25-6.304c-0.537-4.622-0.347-5.994,0.984-7.126c0.975-0.827,1.369-2.047,0.964-2.981
			C46.572,267.744,46.019,264.978,45.722,262.468L45.722,262.468z M44.403,121.544c0-1.925,0.188-4.853,0.416-6.505
			c0.39-2.824,0.197-3.021-3.184-3.265l-3.599-0.26l-0.53,13.693c-0.293,7.53-0.279,13.937,0.026,14.236
			c0.308,0.301,2.332-1.228,4.5-3.395c3.608-3.605,3.875-4.238,3.157-7.471C44.758,126.634,44.404,123.469,44.403,121.544
			L44.403,121.544z M36.994,179.096l-6.346,0.753l-1.517,4.624c-1.947,5.935-1.961,9.681-0.039,8.916
			c0.783-0.31,2.914-0.865,4.736-1.23c2.664-0.537,4.105-1.889,7.354-6.895c2.224-3.424,3.618-6.382,3.101-6.573
			C43.766,178.499,40.485,178.681,36.994,179.096z M36.831,71.315c-3.181-0.409-5.913-0.604-6.072-0.431
			c-0.16,0.172-0.575,3.806-0.921,8.073l-0.629,7.758l2.988-0.034c2.559-0.029,3.568-0.938,7.034-6.331
			c2.229-3.464,3.899-6.746,3.714-7.293C42.761,72.51,40.011,71.725,36.831,71.315z M34.673,128.645
			c-0.688,0.001-2.941-0.257-5.006-0.574l-3.755-0.576l0.711,6.123c0.662,5.702,0.571,6.124-1.325,6.145
			c-2.531,0.029-3.228,1.831-3.156,8.154c0.066,5.79,0.555,5.722,8.175-1.146c4.739-4.27,5.21-5.504,5.487-14.379
			C35.881,129.978,35.478,128.642,34.673,128.645z M32.016,110.347c-2.037-0.307-3.935-0.322-4.217-0.034
			c-0.604,0.617-1.854,14.772-1.351,15.304c0.191,0.199,2.395,0.57,4.899,0.824l4.556,0.461l-0.092-8l-0.091-7.999L32.016,110.347
			L32.016,110.347z M31.34,219.455c-1.47-5.893-3.001-10.912-3.402-11.153s-2.274,2.815-4.161,6.792l-3.431,7.231l2.222,12.976
			l2.223,12.976l3.246-0.352c2.809-0.302,3.242-0.725,3.215-3.131c-0.018-1.552,0.882-3.629,2.036-4.697
			C35.696,237.866,35.551,236.327,31.34,219.455L31.34,219.455z M22.808,69.474c-3.18-0.409-5.936-0.586-6.124-0.394
			c-0.517,0.529-2.147,12.247-1.76,12.648c0.184,0.191,3.064,0.638,6.399,0.992l6.062,0.645l0.457-3.071
			c0.995-6.704,1.143-8.117,0.95-9.076C28.68,70.67,25.989,69.886,22.808,69.474L22.808,69.474z M27.996,171.735
			c-2.523,0.028-3.562,1.689-3.517,5.624c0.027,2.403-1.041,7.371-2.374,11.04c-1.333,3.669-2.422,6.803-2.42,6.966
			c0.002,0.161,1.19-0.038,2.641-0.444c2.181-0.61,2.87-1.682,3.96-6.156c0.727-2.979,1.53-5.632,1.786-5.894
			C28.646,182.284,28.575,171.728,27.996,171.735L27.996,171.735z M25.281,94.328c-7.175-1.415-9.762-1.068-12.304,1.648
			l-2.531,2.703l2.511,0.599c1.931,0.46,2.592,1.345,2.86,3.82c0.322,2.962,0.707,3.277,4.795,3.923
			c2.445,0.386,4.598,0.545,4.783,0.355c0.41-0.419,1.925-8.457,2.051-10.874C27.5,95.466,26.633,94.595,25.281,94.328z
			 M21.222,84.443c-3.411-0.317-6.564-0.205-7.012,0.251c-0.443,0.455-0.292,2.255,0.339,4.001c0.919,2.542,1.702,3.168,3.926,3.143
			c1.527-0.018,4.187,0.233,5.909,0.558c3.088,0.581,3.131,0.532,3.086-3.393l-0.045-3.981L21.222,84.443z M23.446,196.309
			c-1.784,0.395-3.754,1.24-4.375,1.88c-1.053,1.082-7.178,15.448-7.163,16.803c0.009,0.75,7.902,3.323,8.418,2.746
			c0.204-0.23,1.722-3.133,3.374-6.451c2.084-4.188,3-7.514,2.994-10.865l-0.005-4.829L23.446,196.309z M3.823,148.102
			c4.816,5.395,9.504,9.8,10.42,9.789c3.438-0.039,5.726-4.247,6.364-11.696l0.611-7.132l-5.85-0.822
			c-5.712-0.804-5.841-0.891-5.614-3.813c0.506-6.503,1.125-7.397,8.051-11.619c5.306-3.234,6.975-4.811,7.279-6.873
			c0.889-6.005,0.464-6.61-5.232-7.445l0,0c-4.722-0.694-5.606-0.539-7.549,1.331c-3.134,3.012-9.763,3-11.923-0.024
			c-1.114-1.56-1.61-1.78-1.646-0.731c-0.03,0.826-0.865,7.739-1.859,15.365 M19.486,123.841c-2.795,1.697-5.573,3.419-6.173,3.828
			c-0.599,0.408-1.329,2.392-1.623,4.41l-0.532,3.667l6.266,1.018c3.446,0.559,6.561,1.014,6.919,1.009
			c0.358-0.004,0.558-3.834,0.438-8.512l-0.212-8.506L19.486,123.841z M20.285,34.154c-0.859-0.319-1.326-1.223-1.035-2.01
			c0.292-0.785,0.122-1.169-0.378-0.854c-0.498,0.316-1.667-2.009-2.596-5.168c-0.929-3.159-2.816-8.528-4.193-11.931
			c-1.424-3.516-2.221-6.952-1.85-7.956c0.403-1.087-1.134-0.265-3.994,2.131c-2.558,2.145-4.642,4.539-4.633,5.32
			c0.023,2.033,3.521,8.425,9.819,17.95l5.471,8.271l2.487-1.67C22.235,36.32,22.53,34.985,20.285,34.154z M3.348,251.022
			c0.776-0.009,15.514-28.771,15.585-30.417c0.017-0.405-1.621-1.405-3.641-2.222c-3.281-1.327-3.849-1.322-5.328,0.046
			 M12.121,83.53c0.521-0.535,1.904-9.246,2.021-12.746c0.086-2.568-0.051-2.62-10.427-3.778 M12.143,100.911
			c-0.805,0.009-2.277-0.84-3.276-1.886c-1.435-1.507-2.542-1.748-5.302-1.155c-3.038,0.653-3.524,1.174-3.768,4.038
			c-0.596,6.961,5.709,10.79,11.077,6.727C13.953,106.303,14.846,100.88,12.143,100.911z M-2.369,101.915
			c-0.022-4.252,2.494-5.936,9.162-6.138c6.122-0.185,8.632-4.968,4.651-8.858l0,0c-1.35-1.318-3.357-1.962-6.022-1.931
			c-3.965,0.045-4,0.079-3.957,3.845c0.051,4.431-1.329,6.207-4.878,6.279 M0.918,38.401c0.446,0.47,2.583-0.602,4.748-2.383
			l3.939-3.238l-4.976-9.116c-2.736-5.014-4.988-9.708-5.007-10.43l0,0c-0.02-0.723,1.302-2.464,2.936-3.873
			c1.633-1.408,2.965-3.095,2.958-3.75 M7.969,1.591C6.389,2.218,5.915,3.976,7.329,3.96c1.058-0.012,2.153-1.118,2.142-2.159
			C9.466,1.359,8.791,1.265,7.969,1.591z M6.434,156.906l3.698,0.794l-7.319-8.048 M3.369-4.649c1.28,3.802,1.3,3.814,2.553,1.471
			c1.416-2.647,0.9-7.412-1.415-13.111l0,0c-1.134-2.79-1.967-3.617-3.224-3.201c-1.29,0.424-2.289-0.697-4.16-4.674 M-0.73,88.751
			l-0.354-4.189"/>
	</g>
</g>
<rect id="_x3C_Slice_x3E_" x="134.5" y="403" fill="none" width="102" height="155"/>
</svg>
